<svg xmlns="http://www.w3.org/2000/svg" width="320" height="140" viewBox="0 0 320 140" fill="none" aria-hidden="true">
  <!-- GitHub-docs–style hero illustration: pipeline + doc -->
  <rect x="8" y="16" width="304" height="108" rx="12" fill="#f6f8fa" stroke="#d0d7de" stroke-width="1"/>
  <rect x="24" y="36" width="72" height="28" rx="6" fill="#0969da" opacity="0.12"/>
  <rect x="24" y="36" width="72" height="28" rx="6" stroke="#0969da" stroke-width="1.5" fill="none"/>
  <text x="60" y="55" text-anchor="middle" fill="#0969da" font-family="system-ui,sans-serif" font-size="11" font-weight="700">build</text>
  <path d="M104 50h16" stroke="#d0d7de" stroke-width="2" stroke-linecap="round"/>
  <rect x="128" y="36" width="72" height="28" rx="6" fill="#1a7f37" opacity="0.1"/>
  <rect x="128" y="36" width="72" height="28" rx="6" stroke="#1a7f37" stroke-width="1.5" fill="none"/>
  <text x="164" y="55" text-anchor="middle" fill="#1a7f37" font-family="system-ui,sans-serif" font-size="11" font-weight="700">test</text>
  <path d="M208 50h16" stroke="#d0d7de" stroke-width="2" stroke-linecap="round"/>
  <rect x="232" y="36" width="72" height="28" rx="6" fill="#8250df" opacity="0.1"/>
  <rect x="232" y="36" width="72" height="28" rx="6" stroke="#8250df" stroke-width="1.5" fill="none"/>
  <text x="268" y="55" text-anchor="middle" fill="#8250df" font-family="system-ui,sans-serif" font-size="11" font-weight="700">eval</text>
  <rect x="24" y="80" width="280" height="32" rx="6" fill="#ffffff" stroke="#d0d7de"/>
  <text x="36" y="100" fill="#656d76" font-family="ui-monospace, SFMono-Regular, Menlo, monospace" font-size="10">kyklos.yaml</text>
  <circle cx="292" cy="96" r="6" fill="#24292f"/>
  <text x="292" y="99" text-anchor="middle" fill="#fff" font-family="system-ui,sans-serif" font-size="8" font-weight="700">?</text>
</svg>
